<svg viewBox="0 0 300 530" width="300" xmlns="http://www.w3.org/2000/svg">
  <title>STM32 Nucleo-F401RE — Vista dall'alto</title>
  <desc>Schematico top-view della scheda STM32 Nucleo-F401RE con i principali componenti etichettati.</desc>

  <!-- PCB board body -->
  <rect x="22" y="28" width="256" height="490" rx="10" fill="#1c7228" stroke="#0d3d14" stroke-width="2.5"/>

  <!-- ST-LINK top section (darker green) -->
  <rect x="22" y="28" width="256" height="158" rx="10" fill="#145720"/>
  <rect x="22" y="155" width="256" height="31" fill="#145720"/>

  <!-- Section separator dashed line -->
  <line x1="22" y1="186" x2="278" y2="186" stroke="#3a8a4a" stroke-width="1" stroke-dasharray="5,3"/>
  <text x="150" y="196" text-anchor="middle" font-family="sans-serif" font-size="6.5" fill="#4a8a5a">&#9650;  ST-LINK / V2-1  &#9650;</text>

  <!-- Mounting holes (4 corners) -->
  <circle cx="40" cy="46" r="6" fill="#145720" stroke="#0d3d14" stroke-width="1.5"/>
  <circle cx="260" cy="46" r="6" fill="#145720" stroke="#0d3d14" stroke-width="1.5"/>
  <circle cx="40" cy="497" r="6" fill="#1c7228" stroke="#0d3d14" stroke-width="1.5"/>
  <circle cx="260" cy="497" r="6" fill="#1c7228" stroke="#0d3d14" stroke-width="1.5"/>

  <!-- USB Mini-B connector (protruding from top) -->
  <rect x="108" y="11" width="50" height="22" rx="4" fill="#666" stroke="#444" stroke-width="1.5"/>
  <rect x="113" y="15" width="40" height="14" rx="2" fill="#2a2a2a"/>
  <text x="133" y="27" text-anchor="middle" font-family="sans-serif" font-size="7.5" fill="#bbb" font-weight="700">USB</text>

  <!-- ST-LINK MCU chip (STM32F103) -->
  <rect x="96" y="55" width="82" height="64" rx="3" fill="#0f0f0f" stroke="#555" stroke-width="1"/>
  <g fill="#a08818">
    <rect x="104" y="47" width="4.5" height="8" rx="1"/>
    <rect x="113" y="47" width="4.5" height="8" rx="1"/>
    <rect x="122" y="47" width="4.5" height="8" rx="1"/>
    <rect x="131" y="47" width="4.5" height="8" rx="1"/>
    <rect x="140" y="47" width="4.5" height="8" rx="1"/>
    <rect x="149" y="47" width="4.5" height="8" rx="1"/>
    <rect x="158" y="47" width="4.5" height="8" rx="1"/>
    <rect x="167" y="47" width="4.5" height="8" rx="1"/>
    <rect x="104" y="119" width="4.5" height="8" rx="1"/>
    <rect x="113" y="119" width="4.5" height="8" rx="1"/>
    <rect x="122" y="119" width="4.5" height="8" rx="1"/>
    <rect x="131" y="119" width="4.5" height="8" rx="1"/>
    <rect x="140" y="119" width="4.5" height="8" rx="1"/>
    <rect x="149" y="119" width="4.5" height="8" rx="1"/>
    <rect x="158" y="119" width="4.5" height="8" rx="1"/>
    <rect x="167" y="119" width="4.5" height="8" rx="1"/>
  </g>
  <text x="137" y="83" text-anchor="middle" font-family="sans-serif" font-size="8.5" fill="#cccccc" font-weight="600">ST-LINK</text>
  <text x="137" y="96" text-anchor="middle" font-family="sans-serif" font-size="7" fill="#888888">STM32F103CBT6</text>

  <!-- LD1 green COM LED -->
  <circle cx="55" cy="68" r="5.5" fill="#11dd44" stroke="#009933" stroke-width="0.8"/>
  <text x="66" y="71" font-family="sans-serif" font-size="6.5" fill="#9fd4a8">LD1</text>

  <!-- LD3 red power LED -->
  <circle cx="55" cy="85" r="5.5" fill="#ee2200" stroke="#bb1100" stroke-width="0.8"/>
  <text x="66" y="88" font-family="sans-serif" font-size="6.5" fill="#9fd4a8">LD3</text>

  <!-- CN4 SWD debug connector -->
  <rect x="237" y="65" width="28" height="34" rx="2" fill="#111" stroke="#555" stroke-width="0.8"/>
  <g fill="#c8a020">
    <circle cx="243" cy="72" r="1.8"/>
    <circle cx="259" cy="72" r="1.8"/>
    <circle cx="243" cy="80" r="1.8"/>
    <circle cx="259" cy="80" r="1.8"/>
    <circle cx="243" cy="88" r="1.8"/>
    <circle cx="259" cy="88" r="1.8"/>
  </g>
  <text x="251" y="103" text-anchor="middle" font-family="sans-serif" font-size="5.5" fill="#9fd4a8">CN4 SWD</text>

  <!-- Reset button B2 (blue) -->
  <rect x="141" y="155" width="26" height="18" rx="5" fill="#1144cc" stroke="#0033aa" stroke-width="1"/>
  <text x="154" y="167" text-anchor="middle" font-family="sans-serif" font-size="7" fill="white" font-weight="600">RST</text>

  <!-- ═══ MAIN MCU SECTION ═══ -->

  <!-- CN7 Left Morpho 2×19 -->
  <rect x="22" y="200" width="9" height="171" rx="1.5" fill="#111" stroke="#444" stroke-width="0.8"/>
  <rect x="32" y="200" width="9" height="171" rx="1.5" fill="#111" stroke="#444" stroke-width="0.8"/>
  <g fill="#c8a020">
    <circle cx="26.5" cy="207" r="2"/><circle cx="36.5" cy="207" r="2"/>
    <circle cx="26.5" cy="216" r="2"/><circle cx="36.5" cy="216" r="2"/>
    <circle cx="26.5" cy="225" r="2"/><circle cx="36.5" cy="225" r="2"/>
    <circle cx="26.5" cy="234" r="2"/><circle cx="36.5" cy="234" r="2"/>
    <circle cx="26.5" cy="243" r="2"/><circle cx="36.5" cy="243" r="2"/>
    <circle cx="26.5" cy="252" r="2"/><circle cx="36.5" cy="252" r="2"/>
    <circle cx="26.5" cy="261" r="2"/><circle cx="36.5" cy="261" r="2"/>
    <circle cx="26.5" cy="270" r="2"/><circle cx="36.5" cy="270" r="2"/>
    <circle cx="26.5" cy="279" r="2"/><circle cx="36.5" cy="279" r="2"/>
    <circle cx="26.5" cy="288" r="2"/><circle cx="36.5" cy="288" r="2"/>
    <circle cx="26.5" cy="297" r="2"/><circle cx="36.5" cy="297" r="2"/>
    <circle cx="26.5" cy="306" r="2"/><circle cx="36.5" cy="306" r="2"/>
    <circle cx="26.5" cy="315" r="2"/><circle cx="36.5" cy="315" r="2"/>
    <circle cx="26.5" cy="324" r="2"/><circle cx="36.5" cy="324" r="2"/>
    <circle cx="26.5" cy="333" r="2"/><circle cx="36.5" cy="333" r="2"/>
    <circle cx="26.5" cy="342" r="2"/><circle cx="36.5" cy="342" r="2"/>
    <circle cx="26.5" cy="351" r="2"/><circle cx="36.5" cy="351" r="2"/>
    <circle cx="26.5" cy="360" r="2"/><circle cx="36.5" cy="360" r="2"/>
    <circle cx="26.5" cy="369" r="2"/><circle cx="36.5" cy="369" r="2"/>
  </g>
  <text transform="translate(17,285) rotate(-90)" text-anchor="middle" font-family="sans-serif" font-size="7.5" fill="#9fd4a8" font-weight="600">CN7</text>

  <!-- CN10 Right Morpho 2×19 -->
  <rect x="259" y="200" width="9" height="171" rx="1.5" fill="#111" stroke="#444" stroke-width="0.8"/>
  <rect x="269" y="200" width="9" height="171" rx="1.5" fill="#111" stroke="#444" stroke-width="0.8"/>
  <g fill="#c8a020">
    <circle cx="263.5" cy="207" r="2"/><circle cx="273.5" cy="207" r="2"/>
    <circle cx="263.5" cy="216" r="2"/><circle cx="273.5" cy="216" r="2"/>
    <circle cx="263.5" cy="225" r="2"/><circle cx="273.5" cy="225" r="2"/>
    <circle cx="263.5" cy="234" r="2"/><circle cx="273.5" cy="234" r="2"/>
    <circle cx="263.5" cy="243" r="2"/><circle cx="273.5" cy="243" r="2"/>
    <circle cx="263.5" cy="252" r="2"/><circle cx="273.5" cy="252" r="2"/>
    <circle cx="263.5" cy="261" r="2"/><circle cx="273.5" cy="261" r="2"/>
    <circle cx="263.5" cy="270" r="2"/><circle cx="273.5" cy="270" r="2"/>
    <circle cx="263.5" cy="279" r="2"/><circle cx="273.5" cy="279" r="2"/>
    <circle cx="263.5" cy="288" r="2"/><circle cx="273.5" cy="288" r="2"/>
    <circle cx="263.5" cy="297" r="2"/><circle cx="273.5" cy="297" r="2"/>
    <circle cx="263.5" cy="306" r="2"/><circle cx="273.5" cy="306" r="2"/>
    <circle cx="263.5" cy="315" r="2"/><circle cx="273.5" cy="315" r="2"/>
    <circle cx="263.5" cy="324" r="2"/><circle cx="273.5" cy="324" r="2"/>
    <circle cx="263.5" cy="333" r="2"/><circle cx="273.5" cy="333" r="2"/>
    <circle cx="263.5" cy="342" r="2"/><circle cx="273.5" cy="342" r="2"/>
    <circle cx="263.5" cy="351" r="2"/><circle cx="273.5" cy="351" r="2"/>
    <circle cx="263.5" cy="360" r="2"/><circle cx="273.5" cy="360" r="2"/>
    <circle cx="263.5" cy="369" r="2"/><circle cx="273.5" cy="369" r="2"/>
  </g>
  <text transform="translate(283,285) rotate(90)" text-anchor="middle" font-family="sans-serif" font-size="7.5" fill="#9fd4a8" font-weight="600">CN10</text>

  <!-- Arduino inner headers -->
  <!-- CN6 A0-A5 (top-left) -->
  <rect x="46" y="202" width="7" height="72" rx="1" fill="#0d0d0d" stroke="#444" stroke-width="0.8"/>
  <g fill="#a08818">
    <circle cx="49.5" cy="208" r="1.7"/><circle cx="49.5" cy="217" r="1.7"/>
    <circle cx="49.5" cy="226" r="1.7"/><circle cx="49.5" cy="235" r="1.7"/>
    <circle cx="49.5" cy="244" r="1.7"/><circle cx="49.5" cy="253" r="1.7"/>
    <circle cx="49.5" cy="262" r="1.7"/><circle cx="49.5" cy="271" r="1.7"/>
  </g>
  <text x="59" y="215" font-family="sans-serif" font-size="6" fill="#b0d8b8">CN6</text>
  <text x="59" y="223" font-family="sans-serif" font-size="5.5" fill="#5a9a6a">A0-A5</text>

  <!-- CN5 D8-D13 (top-right) -->
  <rect x="247" y="202" width="7" height="90" rx="1" fill="#0d0d0d" stroke="#444" stroke-width="0.8"/>
  <g fill="#a08818">
    <circle cx="250.5" cy="208" r="1.7"/><circle cx="250.5" cy="217" r="1.7"/>
    <circle cx="250.5" cy="226" r="1.7"/><circle cx="250.5" cy="235" r="1.7"/>
    <circle cx="250.5" cy="244" r="1.7"/><circle cx="250.5" cy="253" r="1.7"/>
    <circle cx="250.5" cy="262" r="1.7"/><circle cx="250.5" cy="271" r="1.7"/>
    <circle cx="250.5" cy="280" r="1.7"/><circle cx="250.5" cy="289" r="1.7"/>
  </g>
  <text x="240" y="215" font-family="sans-serif" font-size="6" fill="#b0d8b8" text-anchor="end">CN5</text>
  <text x="243" y="223" font-family="sans-serif" font-size="5.5" fill="#5a9a6a" text-anchor="end">D8-D13</text>

  <!-- CN8 power (bottom-left) -->
  <rect x="46" y="315" width="7" height="55" rx="1" fill="#0d0d0d" stroke="#444" stroke-width="0.8"/>
  <g fill="#a08818">
    <circle cx="49.5" cy="321" r="1.7"/><circle cx="49.5" cy="330" r="1.7"/>
    <circle cx="49.5" cy="339" r="1.7"/><circle cx="49.5" cy="348" r="1.7"/>
    <circle cx="49.5" cy="357" r="1.7"/><circle cx="49.5" cy="366" r="1.7"/>
  </g>
  <text x="59" y="330" font-family="sans-serif" font-size="6" fill="#b0d8b8">CN8</text>
  <text x="59" y="338" font-family="sans-serif" font-size="5.5" fill="#5a9a6a">PWR</text>

  <!-- CN9 D0-D7 (bottom-right) -->
  <rect x="247" y="315" width="7" height="72" rx="1" fill="#0d0d0d" stroke="#444" stroke-width="0.8"/>
  <g fill="#a08818">
    <circle cx="250.5" cy="321" r="1.7"/><circle cx="250.5" cy="330" r="1.7"/>
    <circle cx="250.5" cy="339" r="1.7"/><circle cx="250.5" cy="348" r="1.7"/>
    <circle cx="250.5" cy="357" r="1.7"/><circle cx="250.5" cy="366" r="1.7"/>
    <circle cx="250.5" cy="375" r="1.7"/>
  </g>
  <text x="240" y="330" font-family="sans-serif" font-size="6" fill="#b0d8b8" text-anchor="end">CN9</text>
  <text x="243" y="338" font-family="sans-serif" font-size="5.5" fill="#5a9a6a" text-anchor="end">D0-D7</text>

  <!-- HSE Crystal -->
  <rect x="57" y="250" width="22" height="10" rx="2" fill="#c8c0a0" stroke="#888" stroke-width="0.8"/>
  <text x="68" y="258" text-anchor="middle" font-family="sans-serif" font-size="5.5" fill="#3a3a30" font-weight="700">XTAL</text>

  <!-- STM32F401RE LQFP64 chip -->
  <rect x="93" y="275" width="114" height="114" rx="3" fill="#0d0d0d" stroke="#555" stroke-width="1.2"/>
  <!-- Pin 1 marker dot -->
  <circle cx="97" cy="279" r="3" fill="#555"/>
  <g fill="#9a8010">
    <!-- Top legs -->
    <rect x="101" y="265" width="5" height="10" rx="1"/>
    <rect x="111" y="265" width="5" height="10" rx="1"/>
    <rect x="121" y="265" width="5" height="10" rx="1"/>
    <rect x="131" y="265" width="5" height="10" rx="1"/>
    <rect x="141" y="265" width="5" height="10" rx="1"/>
    <rect x="151" y="265" width="5" height="10" rx="1"/>
    <rect x="161" y="265" width="5" height="10" rx="1"/>
    <rect x="171" y="265" width="5" height="10" rx="1"/>
    <rect x="181" y="265" width="5" height="10" rx="1"/>
    <rect x="191" y="265" width="5" height="10" rx="1"/>
    <!-- Bottom legs -->
    <rect x="101" y="389" width="5" height="10" rx="1"/>
    <rect x="111" y="389" width="5" height="10" rx="1"/>
    <rect x="121" y="389" width="5" height="10" rx="1"/>
    <rect x="131" y="389" width="5" height="10" rx="1"/>
    <rect x="141" y="389" width="5" height="10" rx="1"/>
    <rect x="151" y="389" width="5" height="10" rx="1"/>
    <rect x="161" y="389" width="5" height="10" rx="1"/>
    <rect x="171" y="389" width="5" height="10" rx="1"/>
    <rect x="181" y="389" width="5" height="10" rx="1"/>
    <rect x="191" y="389" width="5" height="10" rx="1"/>
    <!-- Left legs -->
    <rect x="83" y="283" width="10" height="5" rx="1"/>
    <rect x="83" y="293" width="10" height="5" rx="1"/>
    <rect x="83" y="303" width="10" height="5" rx="1"/>
    <rect x="83" y="313" width="10" height="5" rx="1"/>
    <rect x="83" y="323" width="10" height="5" rx="1"/>
    <rect x="83" y="333" width="10" height="5" rx="1"/>
    <rect x="83" y="343" width="10" height="5" rx="1"/>
    <rect x="83" y="353" width="10" height="5" rx="1"/>
    <rect x="83" y="363" width="10" height="5" rx="1"/>
    <rect x="83" y="373" width="10" height="5" rx="1"/>
    <!-- Right legs -->
    <rect x="207" y="283" width="10" height="5" rx="1"/>
    <rect x="207" y="293" width="10" height="5" rx="1"/>
    <rect x="207" y="303" width="10" height="5" rx="1"/>
    <rect x="207" y="313" width="10" height="5" rx="1"/>
    <rect x="207" y="323" width="10" height="5" rx="1"/>
    <rect x="207" y="333" width="10" height="5" rx="1"/>
    <rect x="207" y="343" width="10" height="5" rx="1"/>
    <rect x="207" y="353" width="10" height="5" rx="1"/>
    <rect x="207" y="363" width="10" height="5" rx="1"/>
    <rect x="207" y="373" width="10" height="5" rx="1"/>
  </g>
  <text x="150" y="319" text-anchor="middle" font-family="sans-serif" font-size="10.5" fill="#dddddd" font-weight="700">STM32</text>
  <text x="150" y="333" text-anchor="middle" font-family="sans-serif" font-size="10.5" fill="#dddddd" font-weight="700">F401RE</text>
  <text x="150" y="347" text-anchor="middle" font-family="sans-serif" font-size="7.5" fill="#777777">LQFP64 · 84 MHz</text>
  <text x="150" y="359" text-anchor="middle" font-family="sans-serif" font-size="7" fill="#555555">512K Flash · 96K RAM</text>

  <!-- LD2 green user LED — PA5 -->
  <circle cx="220" cy="250" r="6" fill="#11ee44" stroke="#00cc33" stroke-width="0.8"/>
  <text x="230" y="246" font-family="sans-serif" font-size="7" fill="#9fd4a8" font-weight="600">LD2</text>
  <text x="230" y="255" font-family="sans-serif" font-size="6" fill="#5a9a6a">PA5</text>

  <!-- B1 user button — PC13 -->
  <rect x="67" y="417" width="28" height="18" rx="5" fill="#1144cc" stroke="#0033aa" stroke-width="1"/>
  <text x="81" y="429" text-anchor="middle" font-family="sans-serif" font-size="8" fill="white" font-weight="600">B1</text>
  <text x="81" y="444" text-anchor="middle" font-family="sans-serif" font-size="6" fill="#9fd4a8">PC13</text>

  <!-- Board silkscreen name -->
  <text x="150" y="468" text-anchor="middle" font-family="sans-serif" font-size="8" fill="#2a7a38" font-weight="700" letter-spacing="1">NUCLEO-F401RE</text>
  <text x="150" y="479" text-anchor="middle" font-family="sans-serif" font-size="6" fill="#2a7a38">&#169; STMicroelectronics</text>
</svg>
